<svg viewBox="0 0 120 120" fill="none" xmlns="http://www.w3.org/2000/svg" aria-hidden="true">
  <defs>
    <linearGradient id="goldM" x1="0" y1="0" x2="1" y2="1">
      <stop offset="0%" stop-color="#c4a87c" />
      <stop offset="50%" stop-color="#b89a62" />
      <stop offset="100%" stop-color="#a0824e" />
    </linearGradient>
    <linearGradient id="botanicalM" x1="0" y1="0" x2="1" y2="1">
      <stop offset="0%" stop-color="#8a9a7e" />
      <stop offset="100%" stop-color="#6b7c5e" />
    </linearGradient>
  </defs>

  <g transform="translate(0, 0)">
    <circle cx="60" cy="60" r="55" stroke="url(#goldM)" stroke-width="0.8" fill="none" opacity="0.5" />
    <circle cx="60" cy="60" r="45" stroke="url(#goldM)" stroke-width="0.5" fill="none" opacity="0.35" />
    <circle cx="60" cy="60" r="38" stroke="url(#goldM)" stroke-width="0.4" fill="none" opacity="0.25" />

    <path d="M60 5 Q65 15 60 25 Q55 35 60 45" stroke="url(#goldM)" stroke-width="0.6" fill="none" opacity="0.55" />
    <path d="M60 115 Q65 105 60 95 Q55 85 60 75" stroke="url(#goldM)" stroke-width="0.6" fill="none" opacity="0.55" />
    <path d="M5 60 Q15 65 25 60 Q35 55 45 60" stroke="url(#goldM)" stroke-width="0.6" fill="none" opacity="0.55" />
    <path d="M115 60 Q105 65 95 60 Q85 55 75 60" stroke="url(#goldM)" stroke-width="0.6" fill="none" opacity="0.55" />

    <path d="M60 20 Q75 25 85 20 Q95 15 105 22" stroke="url(#botanicalM)" stroke-width="0.5" fill="none" opacity="0.5" />
    <ellipse cx="78" cy="22" rx="8" ry="4" fill="url(#botanicalM)" opacity="0.3" transform="rotate(-20 78 22)" />
    <ellipse cx="95" cy="18" rx="5" ry="2.5" fill="url(#botanicalM)" opacity="0.25" transform="rotate(15 95 18)" />

    <path d="M20 100 Q35 105 45 100 Q55 95 65 102" stroke="url(#botanicalM)" stroke-width="0.5" fill="none" opacity="0.5" />
    <ellipse cx="38" cy="103" rx="8" ry="4" fill="url(#botanicalM)" opacity="0.3" transform="rotate(15 38 103)" />
    <ellipse cx="58" cy="98" rx="5" ry="2.5" fill="url(#botanicalM)" opacity="0.25" transform="rotate(-20 58 98)" />

    <circle cx="60" cy="60" r="6" fill="url(#goldM)" opacity="0.45" />
    <circle cx="60" cy="60" r="2.5" fill="url(#botanicalM)" opacity="0.6" />
    <circle cx="60" cy="60" r="1" fill="url(#goldM)" opacity="0.8" />

    <circle cx="60" cy="30" r="2" fill="url(#goldM)" opacity="0.5" />
    <circle cx="60" cy="90" r="2" fill="url(#goldM)" opacity="0.5" />
    <circle cx="30" cy="60" r="2" fill="url(#goldM)" opacity="0.5" />
    <circle cx="90" cy="60" r="2" fill="url(#goldM)" opacity="0.5" />
  </g>
</svg>
